<svg width="14" height="14" viewBox="0 0 14 14" fill="none" xmlns="http://www.w3.org/2000/svg">
<g clip-path="url(#clip0_511_114)">
<path d="M12.25 2.42742H9.92578V1.80645C9.92578 1.29839 9.75716 0.870296 9.41992 0.522177C9.08268 0.174059 8.66797 0 8.17578 0H5.82422C5.33203 0 4.91732 0.174059 4.58008 0.522177C4.24284 0.870296 4.07422 1.29839 4.07422 1.80645V2.42742H1.75C1.25781 2.42742 0.843099 2.59677 0.505859 2.93548C0.16862 3.27419 0 3.70699 0 4.23387V6.63306C0 7.02823 0.191406 7.22581 0.574219 7.22581V12.0524C0.574219 12.3723 0.692708 12.6546 0.929688 12.8992C1.16667 13.1438 1.4401 13.2661 1.75 13.2661H12.25C12.5599 13.2661 12.8333 13.1438 13.0703 12.8992C13.3073 12.6546 13.4258 12.3723 13.4258 12.0524V7.22581C13.8086 7.22581 14 7.02823 14 6.63306V4.23387C14 3.70699 13.8314 3.27419 13.4941 2.93548C13.1569 2.59677 12.7422 2.42742 12.25 2.42742ZM5.25 1.80645C5.25 1.6371 5.30469 1.49597 5.41406 1.38306C5.52344 1.27016 5.66016 1.21371 5.82422 1.21371H8.17578C8.33984 1.21371 8.47656 1.27016 8.58594 1.38306C8.69531 1.49597 8.75 1.6371 8.75 1.80645V2.42742H5.25V1.80645ZM1.75 12.0524V7.22581H5.25V9.03226C5.25 9.37097 5.36393 9.65793 5.5918 9.89314C5.81966 10.1284 6.09766 10.246 6.42578 10.246H7.57422C7.90234 10.246 8.18034 10.1284 8.4082 9.89314C8.63607 9.65793 8.75 9.37097 8.75 9.03226V7.22581H12.25V12.0524H1.75ZM6.42578 9.03226V7.22581H7.57422V9.03226H6.42578ZM12.8242 6.04032H1.17578V4.23387C1.17578 3.81989 1.36719 3.6129 1.75 3.6129H12.25C12.6328 3.6129 12.8242 3.81989 12.8242 4.23387V6.04032Z" fill="black" fill-opacity="0.6"/>
</g>
<defs>
<clipPath id="clip0_511_114">
<rect width="14" height="14" fill="white"/>
</clipPath>
</defs>
</svg>
